<svg xmlns="http://www.w3.org/2000/svg" width="330.241" height="62.642" viewBox="0 0 330.241 62.642"><g fill="#174A9B"><path d="m95.853.141-.365-.004c-3.77 0-7.026 1.974-9.423 5.71L70.258 31.886a7.694 7.694 0 0 0 1.91.247c1.3 0 3.086-.371 4.226-2.148l13.063-21.45c.68-1.116 3.006-4.753 5.978-4.812h.318c2.962.066 5.47 3.698 6.149 4.81l4.87 8.074H90.837c-1.032 0-4.407.287-5.221 3.912l23.515-.002 5.595 9.277c1.086 1.578 2.598 2.385 4.483 2.385.821 0 1.535-.16 1.991-.294L105.313 5.871c-1.686-2.624-4.681-5.73-9.46-5.73zm57.173 2.191-13.062 21.45c-.681 1.116-3.404 4.812-5.979 4.812h-.317c-2.612 0-5.47-3.7-6.15-4.81L114.694 2.522C113.608.945 112.097.137 110.211.137a7.2 7.2 0 0 0-1.99.295l15.887 26.015c1.686 2.624 4.682 5.73 9.46 5.73l.365.002c3.771 0 7.027-1.973 9.423-5.709L159.164.432a7.645 7.645 0 0 0-1.91-.248c-1.302.001-3.088.373-4.228 2.148zM80.583.185c-1.301 0-3.086.372-4.226 2.147l-13.063 21.45c-.681 1.116-2.98 4.812-5.584 4.812h-.055c-2.735 0-4.097-3.51-4.704-4.81L44.863 2.656C44.119.811 43.134.19 41.248.19h-.003c-1.887 0-2.871.621-3.615 2.466l-8.09 21.129c-.556 1.424-2.066 4.81-4.704 4.81h-.054c-2.701 0-4.903-3.696-5.584-4.812L6.136 2.332C4.996.557 3.21.185 1.909.185 1.096.185.405.325 0 .433l15.807 26.038c2.396 3.736 5.127 5.709 8.897 5.709l.103-.002c5.581 0 7.344-3.003 8.44-5.73L41.26 5.734v.006c.472.949 8.006 20.708 8.006 20.708 1.097 2.727 2.84 5.73 8.421 5.73l.102.002c3.77 0 6.501-1.973 8.898-5.709L82.493.432a7.654 7.654 0 0 0-1.91-.247zM239.032.118l.021 26.892-.02.021-31.368-25.926c-.754-.612-2.693-1.862-4.551-.476-.875.727-1.607 1.86-1.658 3.653l-.002.05v4.432l-.01 19.547c.17 3.631 3.119 4.528 4.338 4.744V5.457l33.25 27.572v.008l.002-.003.002.003v-.008l.018-.017v.042c1.221-.215 4.338-1.393 4.338-5.225l-.008-22.907c0 .001.232-4.804-4.352-4.804zm-74.914 19.794v-7.501c.132-5.437 3.362-8.308 9.348-8.308l19.797-.007c.916-.047 3.979-.476 5.301-3.956l-26.93.005c-6.389 0-11.994 4.982-11.994 10.658l.008 10.831c.074 5.712 5.563 10.54 11.986 10.54l21.777-.005c1.141-.088 3.908-.661 5.156-3.955l-25.102.003c-5.985 0-9.215-2.873-9.347-8.305z"/><path d="M166.924 17.959h19.73l.047-.003c3.594-.111 4.484-2.716 4.701-3.987h-19.889c-3.514.175-4.381 2.733-4.589 3.99zm85.466 1.953v-7.501c.133-5.437 3.363-8.308 9.35-8.308l19.795-.007c.916-.047 3.979-.476 5.301-3.956l-26.93.005c-6.389 0-11.992 4.982-11.992 10.658l.006 10.831c.074 5.712 5.564 10.54 11.986 10.54l21.779-.005c1.139-.088 3.908-.661 5.154-3.955l-25.1.003c-5.986 0-9.217-2.873-9.349-8.305z"/><path d="M255.196 18.113h19.729l.049-.004c3.594-.111 4.482-2.716 4.699-3.987h-19.889c-3.512.176-4.381 2.734-4.588 3.991zM330.241.139c-1.324 3.48-4.695 3.909-5.611 3.957l-12.398.003v23.494c-.178 3.519-3.225 4.388-4.482 4.594V4.099l-12.711-.003c-.916-.048-3.977-.477-5.301-3.957h40.503z"/></g><g fill="#40BBED"><path d="M89.999 44.169h1.414v9.083h-1.414zm9.794 3.129c-.194-.231-.487-.418-.879-.561a3.725 3.725 0 0 0-1.287-.214c-1.075 0-1.897.362-2.466 1.084v-.935h-1.182v6.58h1.313v-3.594c0-.842.202-1.414.608-1.716.406-.302.89-.453 1.448-.453.35 0 .655.067.916.202.26.134.44.313.543.539.103.225.153.564.153 1.019v4.002h1.313v-4.046c0-.516-.024-.878-.072-1.085a1.989 1.989 0 0 0-.408-.822zm5.025 5c-.194 0-.345-.026-.449-.08a.514.514 0 0 1-.227-.217c-.046-.091-.069-.295-.069-.614V47.54h1.32v-.867h-1.32v-2.299l-1.306.67v1.629h-.963v.867h.963v3.786c0 .669.054 1.108.161 1.316.106.208.292.377.555.505.262.128.632.191 1.107.191.292 0 .623-.033.993-.099l-.19-.985a4.76 4.76 0 0 1-.575.044zm5.28-5.775c-1.069 0-1.941.306-2.611.917-.672.612-1.007 1.471-1.007 2.578 0 1.07.332 1.901.995 2.494.664.592 1.563.889 2.696.889.899 0 1.638-.185 2.218-.557a2.822 2.822 0 0 0 1.188-1.568l-1.357-.143c-.198.471-.469.814-.81 1.028-.34.215-.751.323-1.232.323-.646 0-1.186-.192-1.619-.576-.434-.385-.674-.938-.722-1.661h5.776a6.74 6.74 0 0 0 .008-.297c0-1.086-.329-1.928-.984-2.528-.658-.599-1.504-.899-2.539-.899zm-2.19 2.807c.044-.574.271-1.033.683-1.375.411-.342.919-.514 1.521-.514.666 0 1.208.215 1.626.645.272.277.437.692.496 1.245h-4.326zm7.527-5.161h1.313v9.083h-1.313zm3.558 0h1.313v9.083h-1.313zm3.595 2.504h1.313v6.58h-1.313zm0-2.504h1.313v1.283h-1.313zm8.664 3.296c-.593-.628-1.347-.942-2.262-.942-.685 0-1.281.145-1.79.435a2.856 2.856 0 0 0-1.163 1.23 3.8 3.8 0 0 0-.401 1.738c0 .914.292 1.695.875 2.348.584.652 1.408.979 2.474.979.855 0 1.57-.287 2.144-.861.005.727-.026 1.204-.094 1.431a1.541 1.541 0 0 1-.672.868c-.331.207-.8.31-1.407.31-.564 0-1.01-.103-1.335-.31-.244-.153-.393-.397-.444-.732l-1.277-.161c-.02.71.255 1.242.824 1.595.568.354 1.315.53 2.239.53.777 0 1.434-.125 1.966-.373.533-.247.922-.585 1.167-1.013.246-.427.369-1.153.369-2.178v-5.688h-1.212v.794zm-.627 4.272c-.408.395-.915.592-1.518.592-.607 0-1.113-.199-1.517-.595-.404-.396-.605-1.026-.605-1.89 0-.793.204-1.391.612-1.793a2.04 2.04 0 0 1 1.488-.605c.593 0 1.101.205 1.52.613.421.41.631 1.017.631 1.822.001.843-.202 1.462-.611 1.856zm7.241-5.214c-1.069 0-1.939.306-2.611.917-.67.612-1.006 1.471-1.006 2.578 0 1.07.331 1.901.996 2.494.664.592 1.562.889 2.694.889.9 0 1.639-.185 2.218-.557a2.809 2.809 0 0 0 1.188-1.568l-1.355-.143c-.2.471-.47.814-.81 1.028-.341.215-.752.323-1.233.323-.647 0-1.187-.192-1.62-.576-.432-.385-.674-.938-.722-1.661h5.777c.005-.131.007-.231.007-.297 0-1.086-.328-1.928-.984-2.528-.655-.599-1.503-.899-2.539-.899zm-2.187 2.807c.044-.574.271-1.033.683-1.375.41-.342.917-.514 1.521-.514.666 0 1.209.215 1.626.645.273.277.438.692.496 1.245h-4.326zm13.369-2.032c-.194-.231-.487-.418-.879-.561a3.717 3.717 0 0 0-1.287-.214c-1.075 0-1.898.362-2.466 1.084v-.935h-1.182v6.58h1.314v-3.594c0-.842.202-1.414.608-1.716.406-.302.89-.453 1.448-.453.351 0 .654.067.916.202.26.134.44.313.542.539.103.225.154.564.154 1.019v4.002h1.313v-4.046c0-.516-.024-.878-.073-1.085a1.989 1.989 0 0 0-.408-.822zm5.024 5c-.195 0-.344-.026-.448-.08a.501.501 0 0 1-.226-.217c-.046-.091-.069-.295-.069-.614V47.54h1.32v-.867h-1.32v-2.299l-1.307.67v1.629h-.963v.867h.963v3.786c0 .669.054 1.108.161 1.316.107.208.292.377.554.505.264.128.632.191 1.108.191.292 0 .624-.033.993-.099l-.189-.985c-.238.03-.43.044-.577.044zm6.899-8.129h1.414v9.083h-1.414zm3.345 1.072h3.524v8.011h1.415v-8.011h3.538v-1.072h-8.477zm20.496 3.229c-.429-.166-1.218-.359-2.366-.58-1.151-.222-1.862-.438-2.135-.647-.278-.211-.416-.479-.416-.806 0-.376.196-.697.588-.963s1.015-.399 1.87-.399c.822 0 1.444.146 1.865.439.42.293.667.728.74 1.301l1.355-.087a2.458 2.458 0 0 0-.524-1.432c-.327-.421-.791-.74-1.398-.957-.605-.217-1.303-.326-2.097-.326-.72 0-1.374.103-1.962.31-.588.207-1.036.509-1.342.907-.306.399-.46.828-.46 1.286 0 .417.125.794.377 1.131.249.336.629.618 1.14.846.394.177 1.082.367 2.065.566.981.201 1.617.348 1.904.443.447.145.768.324.962.536.195.213.293.462.293.746 0 .281-.103.541-.303.778-.203.238-.511.424-.923.56-.414.137-.89.205-1.43.205-.608 0-1.156-.09-1.643-.27-.485-.179-.845-.415-1.075-.706-.232-.292-.379-.664-.441-1.119l-1.335.1c.019.607.216 1.151.588 1.632.37.482.885.842 1.538 1.081.655.24 1.465.359 2.434.359.764 0 1.45-.119 2.061-.356s1.078-.57 1.404-.998c.324-.427.487-.883.487-1.366 0-.487-.146-.918-.443-1.292-.296-.371-.757-.679-1.378-.922zm6.971-1.947c-.958 0-1.769.245-2.435.731-.799.586-1.196 1.489-1.196 2.707 0 1.112.334 1.962 1.002 2.553.67.591 1.546.886 2.63.886.676 0 1.3-.134 1.871-.402s1.006-.645 1.306-1.13c.299-.485.449-1.151.449-1.999 0-1.045-.339-1.864-1.015-2.456-.676-.593-1.546-.89-2.612-.89zm1.626 5.329c-.434.421-.975.632-1.626.632-.657 0-1.201-.209-1.634-.629-.434-.419-.648-1.05-.648-1.893 0-.842.215-1.472.648-1.889.433-.417.977-.626 1.634-.626.647 0 1.187.21 1.622.629.437.419.654 1.036.654 1.85.001.863-.216 1.505-.65 1.926zm3.75-7.683h1.311v9.083h-1.311zm8.525 6.029c0 .562-.071.991-.216 1.285-.143.296-.388.529-.732.701a2.47 2.47 0 0 1-1.109.256c-.393 0-.724-.083-.991-.25a1.161 1.161 0 0 1-.525-.691c-.055-.203-.079-.595-.079-1.177v-3.649h-1.314v4.076c0 .475.027.822.079 1.041.08.327.214.602.406.827.19.226.485.412.883.562.395.148.822.222 1.281.222 1.035 0 1.853-.372 2.456-1.115v.966h1.176v-6.58h-1.314v3.526zm5.9 2.1c-.195 0-.346-.026-.45-.08a.517.517 0 0 1-.226-.217c-.046-.091-.069-.295-.069-.614V47.54h1.32v-.867h-1.32v-2.299l-1.306.67v1.629h-.963v.867h.963v3.786c0 .669.055 1.108.161 1.316.106.208.291.377.555.505.262.128.632.191 1.108.191.291 0 .622-.033.992-.099l-.191-.985c-.237.03-.428.044-.574.044zm2.105-8.129h1.314v1.283h-1.314zm0 2.504h1.314v6.58h-1.314zm6.696-.15c-.959 0-1.77.245-2.435.731-.8.586-1.197 1.489-1.197 2.707 0 1.112.335 1.962 1.002 2.553.67.591 1.547.886 2.631.886.676 0 1.299-.134 1.87-.402.571-.268 1.007-.645 1.306-1.13.299-.485.45-1.151.45-1.999 0-1.045-.339-1.864-1.016-2.456-.677-.593-1.547-.89-2.611-.89zm1.627 5.329c-.433.421-.975.632-1.627.632-.657 0-1.201-.209-1.635-.629-.433-.419-.648-1.05-.648-1.893 0-.842.216-1.472.648-1.889.434-.417.978-.626 1.635-.626.647 0 1.189.21 1.623.629.436.419.653 1.036.653 1.85 0 .863-.218 1.505-.649 1.926zm9.59-4.554c-.194-.231-.487-.418-.879-.561a3.725 3.725 0 0 0-1.287-.214c-1.075 0-1.897.362-2.467 1.084v-.935h-1.18v6.58h1.312v-3.594c0-.842.203-1.414.609-1.716.405-.302.889-.453 1.447-.453.351 0 .657.067.917.202.26.134.441.313.542.539.102.225.154.564.154 1.019v4.002h1.313v-4.046c0-.516-.023-.878-.073-1.085a2 2 0 0 0-.408-.822zm8.33 3.067c-.21-.256-.498-.451-.864-.585-.368-.134-1.015-.307-1.944-.518a22.835 22.835 0 0 1-1.161-.285c-.228-.079-.396-.177-.502-.297a.564.564 0 0 1-.161-.39c0-.227.128-.425.387-.595.258-.169.687-.254 1.291-.254.511 0 .906.095 1.185.285.28.19.45.455.507.793l1.284-.148c-.081-.426-.232-.765-.452-1.02-.22-.253-.559-.455-1.017-.604-.46-.148-.994-.223-1.603-.223-.404 0-.78.044-1.134.134-.352.088-.63.197-.835.325a1.917 1.917 0 0 0-.645.623c-.159.25-.239.521-.239.814 0 .322.097.617.289.883.192.267.476.475.846.625.372.151 1.04.33 2.002.537.716.152 1.164.279 1.344.378.257.145.387.343.387.595 0 .28-.146.526-.439.734-.291.208-.738.313-1.341.313-.599 0-1.064-.118-1.398-.354-.333-.235-.536-.574-.609-1.016l-1.297.174c.146.698.48 1.225 1.01 1.58.527.355 1.296.533 2.302.533.607 0 1.151-.089 1.633-.269.48-.18.852-.434 1.106-.763.255-.328.381-.678.381-1.05-.002-.381-.104-.699-.313-.955z"/></g></svg>