<?xml version="1.0" encoding="UTF-8"?>
<svg class="icon" width="800" height="800" viewBox="0 0 1024 1024" xmlns="http://www.w3.org/2000/svg">
 <path d="m766.98 508.74c80.576 0 152.45 32.128 199.23 82.176" fill="#AEBCC3"/>
 <path d="m64.704 684.99c10.816 19.2 32.064 32.192 56.576 32.192h784.64c35.84 0 64.832-27.648 64.832-61.76v-17.408h-36.608a15.744 15.744 0 0 1-16.064-15.296v-71.808a277.57 277.57 0 0 0-150.14-44.16h1.6l-55.04-0.256c-53.632-115.2-157.5-210.75-294.21-210.75-136.51 0-251.01 89.728-282.18 210.69h-16.832c-35.456 0-56.128 27.392-56.128 61.184" fill="#E8447A"/>
 <path d="m64.704 654.46h13.76a39.17 39.17 0 0 0 40.064-38.272v-17.6c0-21.12-17.92-38.208-40.064-38.208h-13.376" fill="#F5BB1D"/>
 <path d="m160 684.99a101.63 96.832 0 1 0 203.26 0 101.63 96.832 0 1 0-203.26 0" fill="#455963"/>
 <path d="m218.88 684.99a42.752 40.768 0 1 0 85.504 0 42.752 40.768 0 1 0-85.504 0" fill="#AEBCC3"/>
 <path d="m652.03 684.99a101.57 96.832 0 1 0 203.14 0 101.57 96.832 0 1 0-203.14 0" fill="#455963"/>
 <path d="m710.91 684.99a42.752 40.768 0 1 0 85.504 0 42.752 40.768 0 1 0-85.504 0" fill="#AEBCC3"/>
 <path d="m966.27 591.1v-0.192a258 258 0 0 0-48.192-40v71.808c0 8.448 7.232 15.296 16.064 15.296h36.608v-42.304z" fill="#F5BB1D"/>
 <path d="m405.57 335.62c-104.9 6.336-191.3 76.8-216.64 170.82h216.64zm40.128 170.82h216.64c-41.216-86.848-117.12-159.62-216.64-170.05z" fill="#631536"/>
</svg>
