<?xml version="1.0" encoding="UTF-8"?>
<svg width="933.33" height="933.33" version="1.0" viewBox="0 0 700 700" xmlns="http://www.w3.org/2000/svg">
 <path d="M258.4 204.5c-67.9 10.3-123.4 50.3-151.6 109.2-2.3 4.7-6 14-8.3 20.7l-4.1 12.1-11.5.6c-9.9.4-12.2.9-17.2 3.4-6.4 3.2-12.4 9.1-15.6 15.4-1.8 3.5-5.1 14-5.1 16.3 0 .4 3.1.8 6.8.8 12.6 0 22.2 5.6 26.8 15.4 2.1 4.4 2.4 6.6 2.4 16.6s-.3 12.2-2.4 16.5c-4.8 10.4-12.7 15.4-25.7 16.2l-7.9.6v21.9l6.3 6.2c11.1 11.1 19.3 13.6 45 13.6h17.3l1.2 3.4c2 5.4 8.5 14.8 14.2 20.4 12.4 12.2 28.4 19.1 46.1 20 13.6.6 23.1-1.4 35.8-7.5 12.4-5.9 23.6-16.8 29.6-28.5l4-7.8h205l4 7.8c6 11.7 17.2 22.6 29.6 28.5 12.7 6.1 22.2 8.1 35.8 7.5 25.5-1.3 48.4-15.8 58.4-37l3.2-6.8H602c23.6 0 30.7-1.1 39.1-5.7 6.9-3.7 14.5-11.8 18.1-19.1 2.8-5.7 3.2-7.6 3.6-17.2l.4-10.8-14-.4c-12.4-.3-14.4-.5-16.9-2.4-5.1-3.8-5.3-5-5.3-32.4v-25.6l-6.2-3.6c-16-9.2-30.8-15.3-48.3-19.8-18-4.6-31.4-6-59.3-6h-24.8l-3.8-7.8c-11.9-24.2-31-51.4-49.6-70.6-32.1-33.1-67.6-53.3-109.2-62.2-10.8-2.3-15.1-2.7-35.3-3-16.1-.2-25.7.1-32.1 1.1m-66.9 238.9c26.7 12.2 19 50.2-10.6 52.4-24.7 1.8-40-25.2-25.3-44.5 7.9-10.3 23.3-13.7 35.9-7.9m337.2.2c12.4 6 18.2 19.7 14.2 33.4-1.9 6.5-10.7 15.1-17.8 17.5-19.9 6.6-40.6-8.6-38.8-28.5s23.7-31.5 42.4-22.4"/>
</svg>
